<svg xmlns="http://www.w3.org/2000/svg" xmlns:xlink="http://www.w3.org/1999/xlink" width="75" zoomAndPan="magnify" viewBox="0 0 56.25 56.249997" height="75" preserveAspectRatio="xMidYMid meet" version="1.0"><defs><clipPath id="ff7a885e94"><path d="M 0 0 L 55.511719 0 L 55.511719 55.511719 L 0 55.511719 Z M 0 0 " clip-rule="nonzero"/></clipPath><clipPath id="00ad6601b3"><path d="M 7.882812 7.882812 L 47.847656 7.882812 L 47.847656 47.847656 L 7.882812 47.847656 Z M 7.882812 7.882812 " clip-rule="nonzero"/></clipPath><clipPath id="927e3cef30"><path d="M 10.035156 20.683594 L 39 20.683594 L 39 33 L 10.035156 33 Z M 10.035156 20.683594 " clip-rule="nonzero"/></clipPath><clipPath id="2959458015"><path d="M 36.667969 23.253906 L 45.453125 23.253906 L 45.453125 32.652344 L 36.667969 32.652344 Z M 36.667969 23.253906 " clip-rule="nonzero"/></clipPath><clipPath id="1a9902bc5f"><path d="M 38.722656 31.082031 L 42.542969 31.082031 L 42.542969 34.746094 L 38.722656 34.746094 Z M 38.722656 31.082031 " clip-rule="nonzero"/></clipPath><clipPath id="0791ff2cc0"><path d="M 20.683594 31.082031 L 24.503906 31.082031 L 24.503906 34.746094 L 20.683594 34.746094 Z M 20.683594 31.082031 " clip-rule="nonzero"/></clipPath><clipPath id="c48a6d2070"><path d="M 10.035156 27 L 13 27 L 13 29 L 10.035156 29 Z M 10.035156 27 " clip-rule="nonzero"/></clipPath></defs><g clip-path="url(#ff7a885e94)"><path fill="#ffffff" d="M 0 0 L 55.511719 0 L 55.511719 55.511719 L 0 55.511719 Z M 0 0 " fill-opacity="1" fill-rule="nonzero"/><path fill="#ffffff" d="M 0 0 L 55.511719 0 L 55.511719 55.511719 L 0 55.511719 Z M 0 0 " fill-opacity="1" fill-rule="nonzero"/></g><g clip-path="url(#00ad6601b3)"><path fill="#ffe1b6" d="M 47.617188 27.75 C 47.617188 28.402344 47.585938 29.050781 47.523438 29.699219 C 47.457031 30.34375 47.363281 30.988281 47.234375 31.625 C 47.109375 32.265625 46.949219 32.894531 46.761719 33.515625 C 46.574219 34.140625 46.355469 34.75 46.105469 35.351562 C 45.855469 35.953125 45.578125 36.542969 45.273438 37.117188 C 44.964844 37.6875 44.628906 38.246094 44.269531 38.789062 C 43.90625 39.328125 43.519531 39.851562 43.109375 40.355469 C 42.695312 40.855469 42.257812 41.339844 41.796875 41.796875 C 41.339844 42.257812 40.855469 42.695312 40.355469 43.109375 C 39.851562 43.519531 39.328125 43.90625 38.789062 44.269531 C 38.246094 44.628906 37.6875 44.964844 37.117188 45.273438 C 36.542969 45.578125 35.953125 45.855469 35.351562 46.105469 C 34.75 46.355469 34.140625 46.574219 33.515625 46.761719 C 32.894531 46.949219 32.265625 47.109375 31.625 47.234375 C 30.988281 47.363281 30.34375 47.457031 29.699219 47.523438 C 29.050781 47.585938 28.402344 47.617188 27.75 47.617188 C 27.097656 47.617188 26.449219 47.585938 25.800781 47.523438 C 25.15625 47.457031 24.511719 47.363281 23.875 47.234375 C 23.234375 47.109375 22.605469 46.949219 21.984375 46.761719 C 21.359375 46.574219 20.75 46.355469 20.148438 46.105469 C 19.546875 45.855469 18.957031 45.578125 18.382812 45.273438 C 17.8125 44.964844 17.253906 44.628906 16.710938 44.269531 C 16.171875 43.90625 15.648438 43.519531 15.144531 43.109375 C 14.644531 42.695312 14.160156 42.257812 13.703125 41.796875 C 13.242188 41.339844 12.804688 40.855469 12.390625 40.355469 C 11.980469 39.851562 11.59375 39.328125 11.230469 38.789062 C 10.871094 38.246094 10.535156 37.6875 10.226562 37.117188 C 9.921875 36.542969 9.644531 35.953125 9.394531 35.351562 C 9.144531 34.75 8.925781 34.140625 8.738281 33.515625 C 8.550781 32.894531 8.390625 32.265625 8.265625 31.625 C 8.136719 30.988281 8.042969 30.34375 7.976562 29.699219 C 7.914062 29.050781 7.882812 28.402344 7.882812 27.75 C 7.882812 27.097656 7.914062 26.449219 7.976562 25.800781 C 8.042969 25.15625 8.136719 24.511719 8.265625 23.875 C 8.390625 23.234375 8.550781 22.605469 8.738281 21.984375 C 8.925781 21.359375 9.144531 20.75 9.394531 20.148438 C 9.644531 19.546875 9.921875 18.957031 10.226562 18.382812 C 10.535156 17.8125 10.871094 17.253906 11.230469 16.710938 C 11.59375 16.171875 11.980469 15.648438 12.390625 15.144531 C 12.804688 14.644531 13.242188 14.160156 13.703125 13.703125 C 14.160156 13.242188 14.644531 12.804688 15.144531 12.390625 C 15.648438 11.980469 16.171875 11.59375 16.710938 11.230469 C 17.253906 10.871094 17.8125 10.535156 18.382812 10.226562 C 18.957031 9.921875 19.546875 9.644531 20.148438 9.394531 C 20.75 9.144531 21.359375 8.925781 21.984375 8.738281 C 22.605469 8.550781 23.234375 8.390625 23.875 8.265625 C 24.511719 8.136719 25.15625 8.042969 25.800781 7.976562 C 26.449219 7.914062 27.097656 7.882812 27.75 7.882812 C 28.402344 7.882812 29.050781 7.914062 29.699219 7.976562 C 30.34375 8.042969 30.988281 8.136719 31.625 8.265625 C 32.265625 8.390625 32.894531 8.550781 33.515625 8.738281 C 34.140625 8.925781 34.75 9.144531 35.351562 9.394531 C 35.953125 9.644531 36.542969 9.921875 37.117188 10.226562 C 37.6875 10.535156 38.246094 10.871094 38.789062 11.230469 C 39.328125 11.59375 39.851562 11.980469 40.355469 12.390625 C 40.855469 12.804688 41.339844 13.242188 41.796875 13.703125 C 42.257812 14.160156 42.695312 14.644531 43.109375 15.144531 C 43.519531 15.648438 43.90625 16.171875 44.269531 16.710938 C 44.628906 17.253906 44.964844 17.8125 45.273438 18.382812 C 45.578125 18.957031 45.855469 19.546875 46.105469 20.148438 C 46.355469 20.75 46.574219 21.359375 46.761719 21.984375 C 46.949219 22.605469 47.109375 23.234375 47.234375 23.875 C 47.363281 24.511719 47.457031 25.15625 47.523438 25.800781 C 47.585938 26.449219 47.617188 27.097656 47.617188 27.75 Z M 47.617188 27.75 " fill-opacity="1" fill-rule="nonzero"/></g><g clip-path="url(#927e3cef30)"><path fill="#ffb54a" d="M 38.640625 21.464844 L 36.378906 32.101562 C 36.289062 32.53125 35.863281 32.882812 35.433594 32.882812 L 25.027344 32.882812 C 24.886719 32.882812 24.789062 32.773438 24.808594 32.632812 C 24.953125 31.542969 24.203125 30.6875 23.105469 30.6875 C 22.007812 30.6875 20.894531 31.539062 20.570312 32.628906 C 20.53125 32.769531 20.386719 32.882812 20.242188 32.882812 L 18.957031 32.882812 C 18.523438 32.882812 18.25 32.53125 18.339844 32.101562 L 18.515625 31.269531 L 11.394531 31.269531 C 11.007812 31.269531 10.695312 30.953125 10.695312 30.566406 C 10.695312 30.179688 11.007812 29.867188 11.394531 29.867188 L 20.625 29.867188 C 21.011719 29.867188 21.324219 29.554688 21.324219 29.167969 C 21.324219 28.777344 21.011719 28.464844 20.625 28.464844 L 15.472656 28.464844 C 15.085938 28.464844 14.769531 28.152344 14.769531 27.765625 C 14.769531 27.378906 15.085938 27.0625 15.472656 27.0625 L 21.21875 27.0625 C 21.605469 27.0625 21.921875 26.75 21.921875 26.363281 C 21.921875 25.976562 21.605469 25.660156 21.21875 25.660156 L 13.082031 25.660156 C 12.695312 25.660156 12.382812 25.347656 12.382812 24.960938 C 12.382812 24.574219 12.695312 24.257812 13.082031 24.257812 L 21.816406 24.257812 C 22.203125 24.257812 22.515625 23.945312 22.515625 23.558594 C 22.515625 23.171875 22.203125 22.855469 21.816406 22.855469 L 15.472656 22.855469 C 15.085938 22.855469 14.769531 22.542969 14.769531 22.15625 C 14.769531 21.769531 15.085938 21.453125 15.472656 21.453125 L 20.605469 21.453125 C 20.699219 21.027344 21.121094 20.683594 21.550781 20.683594 L 38.023438 20.683594 C 38.457031 20.683594 38.734375 21.035156 38.640625 21.464844 " fill-opacity="1" fill-rule="nonzero"/></g><g clip-path="url(#2959458015)"><path fill="#ffb54a" d="M 45.125 27.378906 L 44.785156 27.054688 C 44.726562 26.996094 44.675781 26.929688 44.628906 26.855469 L 42.640625 23.589844 C 42.511719 23.378906 42.277344 23.253906 42 23.253906 L 38.914062 23.253906 C 38.734375 23.253906 38.554688 23.402344 38.519531 23.582031 L 36.683594 32.210938 C 36.632812 32.453125 36.789062 32.648438 37.03125 32.648438 L 38.605469 32.648438 L 38.625 32.585938 C 38.96875 31.503906 40.050781 30.6875 41.144531 30.6875 C 42.234375 30.6875 42.972656 31.503906 42.855469 32.585938 L 42.847656 32.648438 L 43.613281 32.648438 C 44.121094 32.648438 44.625 32.234375 44.730469 31.726562 L 45.421875 28.476562 C 45.515625 28.046875 45.40625 27.644531 45.125 27.378906 " fill-opacity="1" fill-rule="nonzero"/></g><g clip-path="url(#1a9902bc5f)"><path fill="#ffb54a" d="M 40.4375 33.886719 C 39.921875 33.886719 39.59375 33.464844 39.703125 32.953125 C 39.8125 32.4375 40.320312 32.019531 40.832031 32.019531 C 41.347656 32.019531 41.679688 32.4375 41.570312 32.953125 C 41.460938 33.464844 40.953125 33.886719 40.4375 33.886719 Z M 41.03125 31.085938 C 40.003906 31.085938 38.988281 31.921875 38.769531 32.953125 C 38.554688 33.980469 39.210938 34.816406 40.238281 34.816406 C 41.265625 34.816406 42.28125 33.980469 42.5 32.953125 C 42.71875 31.921875 42.058594 31.085938 41.03125 31.085938 " fill-opacity="1" fill-rule="nonzero"/></g><g clip-path="url(#0791ff2cc0)"><path fill="#ffb54a" d="M 22.398438 33.886719 C 21.882812 33.886719 21.550781 33.464844 21.660156 32.953125 C 21.769531 32.4375 22.277344 32.019531 22.792969 32.019531 C 23.308594 32.019531 23.640625 32.4375 23.53125 32.953125 C 23.421875 33.464844 22.910156 33.886719 22.398438 33.886719 Z M 22.992188 31.085938 C 21.964844 31.085938 20.949219 31.921875 20.730469 32.953125 C 20.511719 33.980469 21.171875 34.816406 22.199219 34.816406 C 23.226562 34.816406 24.242188 33.980469 24.460938 32.953125 C 24.679688 31.921875 24.019531 31.085938 22.992188 31.085938 " fill-opacity="1" fill-rule="nonzero"/></g><path fill="#ffe1b6" d="M 41.589844 24.097656 L 39.792969 24.097656 C 39.492188 24.097656 39.199219 24.339844 39.136719 24.636719 L 38.640625 26.964844 C 38.578125 27.265625 38.765625 27.507812 39.066406 27.507812 L 42.394531 27.507812 C 42.824219 27.507812 43.183594 27.027344 43.027344 26.667969 L 41.988281 24.339844 C 41.921875 24.1875 41.773438 24.097656 41.589844 24.097656 " fill-opacity="1" fill-rule="nonzero"/><path fill="#ffb54a" d="M 13.714844 22.15625 C 13.714844 22.542969 13.402344 22.855469 13.015625 22.855469 L 11.722656 22.855469 C 11.332031 22.855469 11.019531 22.542969 11.019531 22.15625 C 11.019531 21.769531 11.332031 21.453125 11.722656 21.453125 L 13.015625 21.453125 C 13.402344 21.453125 13.714844 21.769531 13.714844 22.15625 " fill-opacity="1" fill-rule="nonzero"/><g clip-path="url(#c48a6d2070)"><path fill="#ffb54a" d="M 12.746094 27.765625 C 12.746094 28.152344 12.429688 28.464844 12.042969 28.464844 L 10.746094 28.464844 C 10.359375 28.464844 10.046875 28.152344 10.046875 27.765625 C 10.046875 27.378906 10.359375 27.0625 10.746094 27.0625 L 12.042969 27.0625 C 12.429688 27.0625 12.746094 27.378906 12.746094 27.765625 " fill-opacity="1" fill-rule="nonzero"/></g><path fill="#ffe1b6" d="M 24.527344 21.472656 L 26.925781 21.472656 L 26.714844 22.5625 L 25.734375 22.5625 L 25.53125 23.59375 L 26.40625 23.59375 L 26.203125 24.628906 L 25.332031 24.628906 L 24.886719 26.917969 L 23.472656 26.917969 L 24.527344 21.472656 " fill-opacity="1" fill-rule="nonzero"/><path fill="#ffe1b6" d="M 28.503906 22.402344 L 28.269531 23.613281 C 28.425781 23.613281 28.542969 23.59375 28.617188 23.550781 C 28.6875 23.503906 28.746094 23.363281 28.792969 23.125 L 28.851562 22.824219 C 28.886719 22.652344 28.875 22.539062 28.824219 22.484375 C 28.773438 22.429688 28.667969 22.402344 28.503906 22.402344 Z M 27.269531 21.472656 L 28.269531 21.472656 C 28.9375 21.472656 29.386719 21.5 29.613281 21.550781 C 29.839844 21.601562 30.007812 21.734375 30.113281 21.945312 C 30.222656 22.15625 30.230469 22.496094 30.140625 22.960938 C 30.058594 23.382812 29.949219 23.667969 29.816406 23.8125 C 29.683594 23.957031 29.457031 24.046875 29.144531 24.074219 C 29.410156 24.144531 29.582031 24.238281 29.652344 24.355469 C 29.726562 24.472656 29.765625 24.578125 29.773438 24.675781 C 29.777344 24.773438 29.734375 25.042969 29.652344 25.480469 L 29.371094 26.917969 L 28.058594 26.917969 L 28.410156 25.105469 C 28.464844 24.816406 28.476562 24.636719 28.445312 24.566406 C 28.414062 24.496094 28.296875 24.460938 28.105469 24.460938 L 27.625 26.917969 L 26.210938 26.917969 L 27.269531 21.472656 " fill-opacity="1" fill-rule="nonzero"/><path fill="#ffe1b6" d="M 30.976562 21.472656 L 33.335938 21.472656 L 33.125 22.5625 L 32.179688 22.5625 L 31.980469 23.59375 L 32.863281 23.59375 L 32.664062 24.628906 L 31.777344 24.628906 L 31.546875 25.828125 L 32.585938 25.828125 L 32.375 26.917969 L 29.917969 26.917969 L 30.976562 21.472656 " fill-opacity="1" fill-rule="nonzero"/><path fill="#ffe1b6" d="M 33.839844 21.472656 L 36.199219 21.472656 L 35.988281 22.5625 L 35.042969 22.5625 L 34.839844 23.59375 L 35.726562 23.59375 L 35.523438 24.628906 L 34.640625 24.628906 L 34.40625 25.828125 L 35.445312 25.828125 L 35.234375 26.917969 L 32.78125 26.917969 L 33.839844 21.472656 " fill-opacity="1" fill-rule="nonzero"/><path fill="#ffe1b6" d="M 24.050781 27.953125 L 23.71875 29.679688 C 23.816406 29.679688 23.878906 29.660156 23.910156 29.621094 C 23.941406 29.582031 23.972656 29.476562 24.007812 29.300781 L 24.203125 28.28125 C 24.226562 28.160156 24.238281 28.085938 24.238281 28.050781 C 24.238281 28.019531 24.222656 27.992188 24.199219 27.976562 C 24.175781 27.960938 24.128906 27.953125 24.050781 27.953125 Z M 23.457031 27.503906 L 23.96875 27.503906 C 24.296875 27.503906 24.519531 27.519531 24.628906 27.550781 C 24.738281 27.582031 24.816406 27.628906 24.863281 27.699219 C 24.910156 27.769531 24.933594 27.84375 24.933594 27.929688 C 24.929688 28.015625 24.90625 28.183594 24.859375 28.429688 L 24.679688 29.351562 C 24.632812 29.585938 24.59375 29.742188 24.554688 29.824219 C 24.515625 29.902344 24.464844 29.964844 24.402344 30.007812 C 24.339844 30.054688 24.265625 30.085938 24.179688 30.101562 C 24.09375 30.121094 23.972656 30.128906 23.808594 30.128906 L 22.945312 30.128906 L 23.457031 27.503906 " fill-opacity="1" fill-rule="nonzero"/><path fill="#ffe1b6" d="M 25.292969 27.503906 L 26.429688 27.503906 L 26.328125 28.03125 L 25.875 28.03125 L 25.777344 28.527344 L 26.203125 28.527344 L 26.105469 29.027344 L 25.679688 29.027344 L 25.566406 29.605469 L 26.070312 29.605469 L 25.964844 30.128906 L 24.78125 30.128906 L 25.292969 27.503906 " fill-opacity="1" fill-rule="nonzero"/><path fill="#ffe1b6" d="M 27.355469 27.503906 L 26.949219 29.605469 L 27.363281 29.605469 L 27.261719 30.128906 L 26.164062 30.128906 L 26.671875 27.503906 L 27.355469 27.503906 " fill-opacity="1" fill-rule="nonzero"/><path fill="#ffe1b6" d="M 28.617188 27.503906 L 28.109375 30.128906 L 27.425781 30.128906 L 27.9375 27.503906 L 28.617188 27.503906 " fill-opacity="1" fill-rule="nonzero"/><path fill="#ffe1b6" d="M 30.515625 27.503906 L 29.660156 30.128906 L 28.621094 30.128906 L 28.738281 27.503906 L 29.457031 27.503906 C 29.398438 28.226562 29.339844 28.839844 29.28125 29.339844 C 29.414062 28.835938 29.539062 28.386719 29.652344 27.992188 L 29.796875 27.503906 L 30.515625 27.503906 " fill-opacity="1" fill-rule="nonzero"/><path fill="#ffe1b6" d="M 30.632812 27.503906 L 31.769531 27.503906 L 31.667969 28.03125 L 31.210938 28.03125 L 31.113281 28.527344 L 31.542969 28.527344 L 31.445312 29.027344 L 31.019531 29.027344 L 30.90625 29.605469 L 31.40625 29.605469 L 31.304688 30.128906 L 30.121094 30.128906 L 30.632812 27.503906 " fill-opacity="1" fill-rule="nonzero"/><path fill="#ffe1b6" d="M 32.605469 27.953125 L 32.492188 28.539062 C 32.570312 28.539062 32.625 28.527344 32.660156 28.507812 C 32.695312 28.484375 32.722656 28.417969 32.746094 28.300781 L 32.773438 28.15625 C 32.789062 28.074219 32.785156 28.019531 32.761719 27.992188 C 32.738281 27.96875 32.683594 27.953125 32.605469 27.953125 Z M 32.011719 27.503906 L 32.496094 27.503906 C 32.816406 27.503906 33.03125 27.515625 33.140625 27.542969 C 33.25 27.566406 33.332031 27.628906 33.382812 27.734375 C 33.433594 27.835938 33.441406 27.996094 33.394531 28.222656 C 33.355469 28.425781 33.304688 28.5625 33.238281 28.632812 C 33.175781 28.703125 33.066406 28.746094 32.914062 28.761719 C 33.042969 28.792969 33.125 28.839844 33.160156 28.894531 C 33.195312 28.949219 33.214844 29.003906 33.21875 29.050781 C 33.21875 29.097656 33.199219 29.226562 33.160156 29.4375 L 33.023438 30.128906 L 32.390625 30.128906 L 32.5625 29.257812 C 32.589844 29.117188 32.59375 29.03125 32.578125 28.996094 C 32.5625 28.964844 32.507812 28.945312 32.414062 28.945312 L 32.183594 30.128906 L 31.5 30.128906 L 32.011719 27.503906 " fill-opacity="1" fill-rule="nonzero"/><path fill="#ffe1b6" d="M 35.253906 27.503906 L 34.429688 29.179688 L 34.246094 30.128906 L 33.613281 30.128906 L 33.796875 29.179688 L 33.644531 27.503906 L 34.269531 27.503906 C 34.269531 28.015625 34.257812 28.363281 34.234375 28.539062 C 34.328125 28.257812 34.457031 27.914062 34.628906 27.503906 L 35.253906 27.503906 " fill-opacity="1" fill-rule="nonzero"/></svg>