<svg xmlns="http://www.w3.org/2000/svg" xmlns:xlink="http://www.w3.org/1999/xlink" width="75" zoomAndPan="magnify" viewBox="0 0 56.25 56.249997" height="75" preserveAspectRatio="xMidYMid meet" version="1.0"><defs><clipPath id="c195295b62"><path d="M 0 0 L 55.511719 0 L 55.511719 55.511719 L 0 55.511719 Z M 0 0 " clip-rule="nonzero"/></clipPath><clipPath id="6c3cde49b8"><path d="M 0.59375 0.59375 L 54.917969 0.59375 L 54.917969 54.917969 L 0.59375 54.917969 Z M 0.59375 0.59375 " clip-rule="nonzero"/></clipPath><clipPath id="35e82b629d"><path d="M 27.753906 0.59375 C 12.753906 0.59375 0.59375 12.753906 0.59375 27.753906 C 0.59375 42.757812 12.753906 54.917969 27.753906 54.917969 C 42.757812 54.917969 54.917969 42.757812 54.917969 27.753906 C 54.917969 12.753906 42.757812 0.59375 27.753906 0.59375 Z M 27.753906 0.59375 " clip-rule="nonzero"/></clipPath><clipPath id="b6f5bc647e"><path d="M 15 12.65625 L 40 12.65625 L 40 43 L 15 43 Z M 15 12.65625 " clip-rule="nonzero"/></clipPath><clipPath id="21b546b328"><path d="M 12.65625 17 L 28 17 L 28 37 L 12.65625 37 Z M 12.65625 17 " clip-rule="nonzero"/></clipPath></defs><g clip-path="url(#c195295b62)"><path fill="#ffffff" d="M 0 0 L 55.511719 0 L 55.511719 55.511719 L 0 55.511719 Z M 0 0 " fill-opacity="1" fill-rule="nonzero"/><path fill="#ffffff" d="M 0 0 L 55.511719 0 L 55.511719 55.511719 L 0 55.511719 Z M 0 0 " fill-opacity="1" fill-rule="nonzero"/></g><g clip-path="url(#6c3cde49b8)"><g clip-path="url(#35e82b629d)"><path fill="#ffe1b6" d="M 0.59375 0.59375 L 54.917969 0.59375 L 54.917969 54.917969 L 0.59375 54.917969 Z M 0.59375 0.59375 " fill-opacity="1" fill-rule="nonzero"/></g></g><g clip-path="url(#b6f5bc647e)"><path fill="#ffb54a" d="M 37.316406 38.824219 L 18.191406 38.824219 L 18.191406 36.324219 C 17.25 36.453125 16.40625 36.671875 15.675781 36.914062 L 15.675781 40.335938 C 15.675781 41.722656 16.804688 42.851562 18.191406 42.851562 L 37.316406 42.851562 C 38.703125 42.851562 39.832031 41.722656 39.832031 40.335938 L 39.832031 36.914062 C 39.101562 36.671875 38.257812 36.453125 37.316406 36.324219 Z M 28.761719 41.339844 L 26.746094 41.339844 C 26.46875 41.339844 26.242188 41.113281 26.242188 40.839844 C 26.242188 40.5625 26.46875 40.335938 26.746094 40.335938 L 28.761719 40.335938 C 29.035156 40.335938 29.261719 40.5625 29.261719 40.839844 C 29.261719 41.113281 29.035156 41.339844 28.761719 41.339844 Z M 37.316406 12.65625 L 18.191406 12.65625 C 16.804688 12.65625 15.675781 13.785156 15.675781 15.171875 L 15.675781 17.269531 C 16.5 17.058594 17.339844 16.910156 18.191406 16.8125 L 18.191406 15.675781 L 37.316406 15.675781 L 37.316406 16.8125 C 38.167969 16.910156 39.007812 17.058594 39.832031 17.269531 L 39.832031 15.171875 C 39.832031 13.785156 38.703125 12.65625 37.316406 12.65625 Z M 37.316406 12.65625 " fill-opacity="1" fill-rule="nonzero"/></g><g clip-path="url(#21b546b328)"><path fill="#ffb54a" d="M 19.679688 17.703125 C 17.363281 17.800781 15.101562 18.324219 12.957031 19.253906 C 12.777344 19.335938 12.65625 19.515625 12.65625 19.71875 L 12.65625 36.308594 C 12.65625 36.484375 12.746094 36.644531 12.894531 36.738281 C 13.039062 36.828125 13.226562 36.835938 13.382812 36.761719 C 14.726562 36.101562 16.917969 35.289062 19.722656 35.167969 C 23.117188 35.015625 25.804688 35.960938 27.25 36.632812 L 27.25 18.972656 C 24.839844 18.042969 22.238281 17.597656 19.679688 17.703125 Z M 25.695312 31.984375 C 25.609375 32.171875 25.429688 32.28125 25.238281 32.28125 C 25.167969 32.28125 25.097656 32.269531 25.03125 32.238281 C 24.15625 31.839844 22.332031 31.195312 19.984375 31.285156 C 18.171875 31.363281 16.753906 31.84375 15.886719 32.238281 C 15.636719 32.351562 15.332031 32.238281 15.222656 31.984375 C 15.105469 31.734375 15.21875 31.433594 15.472656 31.320312 C 16.839844 30.703125 18.382812 30.34375 19.949219 30.28125 C 22.375 30.179688 24.28125 30.792969 25.449219 31.320312 C 25.699219 31.4375 25.8125 31.734375 25.695312 31.984375 Z M 25.695312 28.964844 C 25.609375 29.152344 25.429688 29.261719 25.238281 29.261719 C 25.167969 29.261719 25.097656 29.25 25.03125 29.21875 C 24.15625 28.820312 22.332031 28.171875 19.984375 28.265625 C 18.171875 28.34375 16.753906 28.824219 15.886719 29.21875 C 15.636719 29.332031 15.332031 29.222656 15.222656 28.964844 C 15.105469 28.714844 15.21875 28.414062 15.472656 28.300781 C 16.839844 27.683594 18.382812 27.324219 19.949219 27.261719 C 22.375 27.164062 24.28125 27.773438 25.449219 28.300781 C 25.699219 28.417969 25.8125 28.714844 25.695312 28.964844 Z M 25.695312 25.945312 C 25.609375 26.132812 25.429688 26.242188 25.238281 26.242188 C 25.167969 26.242188 25.097656 26.230469 25.03125 26.199219 C 24.15625 25.800781 22.332031 25.15625 19.984375 25.246094 C 18.171875 25.324219 16.753906 25.804688 15.886719 26.199219 C 15.636719 26.316406 15.332031 26.199219 15.222656 25.945312 C 15.105469 25.695312 15.21875 25.394531 15.472656 25.28125 C 16.839844 24.664062 18.382812 24.304688 19.949219 24.242188 C 22.375 24.144531 24.28125 24.753906 25.449219 25.28125 C 25.699219 25.398438 25.8125 25.695312 25.695312 25.945312 Z M 25.445312 22.261719 C 25.695312 22.378906 25.8125 22.675781 25.695312 22.925781 C 25.609375 23.113281 25.429688 23.222656 25.238281 23.222656 C 25.167969 23.222656 25.097656 23.210938 25.03125 23.179688 C 24.15625 22.78125 22.332031 22.132812 19.984375 22.226562 C 18.171875 22.304688 16.753906 22.785156 15.886719 23.179688 C 15.636719 23.296875 15.332031 23.183594 15.222656 22.925781 C 15.105469 22.675781 15.21875 22.375 15.472656 22.261719 C 16.839844 21.644531 18.382812 21.285156 19.949219 21.222656 C 22.367188 21.125 24.269531 21.734375 25.445312 22.261719 Z M 25.445312 22.261719 " fill-opacity="1" fill-rule="nonzero"/></g><path fill="#ffb54a" d="M 42.550781 19.253906 C 40.410156 18.324219 38.144531 17.800781 35.824219 17.703125 C 33.265625 17.597656 30.667969 18.042969 28.257812 18.972656 L 28.257812 36.625 C 29.703125 35.960938 32.394531 35.015625 35.785156 35.160156 C 38.59375 35.28125 40.78125 36.097656 42.125 36.757812 C 42.28125 36.832031 42.46875 36.824219 42.613281 36.730469 C 42.761719 36.640625 42.851562 36.480469 42.851562 36.304688 L 42.851562 19.71875 C 42.851562 19.515625 42.730469 19.335938 42.550781 19.253906 Z M 40.289062 31.984375 C 40.175781 32.238281 39.878906 32.351562 39.625 32.238281 C 38.753906 31.84375 37.339844 31.355469 35.527344 31.285156 C 33.179688 31.195312 31.355469 31.84375 30.480469 32.238281 C 30.414062 32.269531 30.34375 32.28125 30.273438 32.28125 C 30.082031 32.28125 29.898438 32.171875 29.816406 31.984375 C 29.703125 31.734375 29.816406 31.433594 30.070312 31.320312 C 31.242188 30.792969 33.148438 30.179688 35.570312 30.28125 C 37.132812 30.339844 38.679688 30.703125 40.042969 31.320312 C 40.292969 31.4375 40.40625 31.734375 40.289062 31.984375 Z M 40.289062 28.964844 C 40.175781 29.21875 39.878906 29.332031 39.625 29.21875 C 38.753906 28.824219 37.339844 28.335938 35.527344 28.265625 C 33.179688 28.171875 31.355469 28.824219 30.480469 29.21875 C 30.414062 29.25 30.34375 29.261719 30.273438 29.261719 C 30.082031 29.261719 29.898438 29.152344 29.816406 28.964844 C 29.703125 28.714844 29.816406 28.414062 30.070312 28.300781 C 31.242188 27.773438 33.148438 27.164062 35.570312 27.261719 C 37.132812 27.320312 38.679688 27.683594 40.042969 28.300781 C 40.292969 28.417969 40.40625 28.714844 40.289062 28.964844 Z M 40.289062 25.945312 C 40.175781 26.199219 39.878906 26.316406 39.625 26.199219 C 38.753906 25.804688 37.339844 25.316406 35.527344 25.246094 C 33.179688 25.152344 31.355469 25.804688 30.480469 26.199219 C 30.414062 26.230469 30.34375 26.242188 30.273438 26.242188 C 30.082031 26.242188 29.898438 26.132812 29.816406 25.945312 C 29.703125 25.695312 29.816406 25.394531 30.070312 25.28125 C 31.242188 24.753906 33.148438 24.144531 35.570312 24.242188 C 37.132812 24.300781 38.679688 24.664062 40.042969 25.28125 C 40.292969 25.398438 40.40625 25.695312 40.289062 25.945312 Z M 40.289062 22.925781 C 40.175781 23.179688 39.878906 23.296875 39.625 23.179688 C 38.753906 22.785156 37.339844 22.296875 35.527344 22.226562 C 33.179688 22.132812 31.355469 22.78125 30.480469 23.179688 C 30.414062 23.210938 30.34375 23.222656 30.273438 23.222656 C 30.082031 23.222656 29.898438 23.113281 29.816406 22.925781 C 29.703125 22.675781 29.816406 22.375 30.070312 22.261719 C 31.242188 21.734375 33.148438 21.125 35.570312 21.222656 C 37.132812 21.28125 38.679688 21.644531 40.042969 22.261719 C 40.292969 22.378906 40.40625 22.675781 40.289062 22.925781 Z M 40.289062 22.925781 " fill-opacity="1" fill-rule="nonzero"/></svg>